<svg class="svg-logo" xmlns="http://www.w3.org/2000/svg" xmlns:xlink="http://www.w3.org/1999/xlink" width="270" height="38" viewBox="0 0 546 60"><g transform="translate(468 355)" fill="#fff"><use xlink:href="#path0_fill1" transform="translate(-467.4 -355)"/><use xlink:href="#path1_fill1" transform="translate(-456.964 -334.069)"/><use xlink:href="#path2_fill1" transform="translate(-393 -352)"/></g><defs><path id="path0_fill1" d="M26.354 60l13.22-7.446L52.8 45.056V15.06l-5.948 3.372-3.47 2.152-7.585 4.348v6.86l11.055-6.307v10.92l-.09 5.163L26.4 53.113 6.038 41.568l-.09-5.162-.001-17.974L26.4 6.887l14.357 8.14 6.095-3.455L26.445 0 0 14.944v30.112l13.226 7.498L26.354 60z"/><path id="path1_fill1" d="M0 0l6.565 3.73v9.793l9.397 5.329 9.399-5.329v-1.742l6.565-3.723v9.316l-15.964 9.051L0 17.374V0z"/><path id="path2_fill1" d="M.084 12.264H7.56l7.35 19.488h.084l7.476-19.488h7.014L17.22 42h-5.25L.084 12.264zm32.764 0H53.05v6.048H39.4v5.544h12.894v6.048H39.4v6.048h14.406V42H32.848V12.264zm26.203 0H70.56c1.512 0 2.94.154 4.284.462 1.372.28 2.562.77 3.57 1.47 1.036.672 1.848 1.596 2.436 2.772.616 1.148.924 2.59.924 4.326 0 2.1-.546 3.892-1.638 5.376-1.092 1.456-2.688 2.38-4.788 2.772L82.907 42h-7.854l-6.216-11.886h-3.234V42h-6.552V12.264zm6.552 12.306h3.864c.588 0 1.204-.014 1.848-.042a6.866 6.866 0 001.806-.378c.532-.224.966-.56 1.302-1.008.364-.448.546-1.078.546-1.89 0-.756-.154-1.358-.462-1.806a2.914 2.914 0 00-1.176-1.008 4.884 4.884 0 00-1.638-.504 13.36 13.36 0 00-1.806-.126h-4.284v6.762zm26.432 4.746L80.863 12.264h8.148l6.3 11.13 6.678-11.13h7.77L98.587 29.316V42h-6.552V29.316zM151.311 39.9a23.719 23.719 0 01-6.048 2.184c-2.1.448-4.242.672-6.426.672-2.324 0-4.466-.364-6.426-1.092-1.96-.728-3.654-1.764-5.082-3.108-1.428-1.372-2.548-3.024-3.36-4.956-.784-1.932-1.176-4.088-1.176-6.468s.392-4.536 1.176-6.468c.812-1.932 1.932-3.57 3.36-4.914 1.428-1.372 3.122-2.422 5.082-3.15 1.96-.728 4.102-1.092 6.426-1.092 2.38 0 4.564.294 6.552.882 2.016.56 3.78 1.54 5.292 2.94l-4.62 5.04a9.205 9.205 0 00-3.024-2.1c-1.12-.476-2.52-.714-4.2-.714-1.4 0-2.674.238-3.822.714a8.44 8.44 0 00-2.898 2.016c-.812.84-1.442 1.848-1.89 3.024-.42 1.176-.63 2.45-.63 3.822 0 1.4.21 2.688.63 3.864a9.359 9.359 0 001.89 3.024 8.73 8.73 0 002.898 1.974c1.148.476 2.422.714 3.822.714 1.428 0 2.66-.154 3.696-.462 1.036-.336 1.862-.672 2.478-1.008v-4.83h-5.334V24.36h11.634V39.9zm4.172-12.768c0-2.38.392-4.536 1.176-6.468.812-1.932 1.932-3.57 3.36-4.914 1.428-1.372 3.122-2.422 5.082-3.15 1.96-.728 4.102-1.092 6.426-1.092s4.466.364 6.426 1.092c1.96.728 3.654 1.778 5.082 3.15 1.428 1.344 2.534 2.982 3.318 4.914.812 1.932 1.218 4.088 1.218 6.468s-.406 4.536-1.218 6.468c-.784 1.932-1.89 3.584-3.318 4.956-1.428 1.344-3.122 2.38-5.082 3.108-1.96.728-4.102 1.092-6.426 1.092s-4.466-.364-6.426-1.092c-1.96-.728-3.654-1.764-5.082-3.108-1.428-1.372-2.548-3.024-3.36-4.956-.784-1.932-1.176-4.088-1.176-6.468zm6.804 0c0 1.4.21 2.688.63 3.864a9.359 9.359 0 001.89 3.024 8.73 8.73 0 002.898 1.974c1.148.476 2.422.714 3.822.714s2.66-.238 3.78-.714c1.148-.476 2.128-1.134 2.94-1.974a8.803 8.803 0 001.848-3.024c.448-1.176.672-2.464.672-3.864 0-1.372-.224-2.646-.672-3.822-.42-1.176-1.036-2.184-1.848-3.024a8.347 8.347 0 00-2.94-2.016c-1.12-.476-2.38-.714-3.78-.714s-2.674.238-3.822.714a8.44 8.44 0 00-2.898 2.016c-.812.84-1.442 1.848-1.89 3.024-.42 1.176-.63 2.45-.63 3.822zm28.141 0c0-2.38.392-4.536 1.176-6.468.812-1.932 1.932-3.57 3.36-4.914 1.428-1.372 3.122-2.422 5.082-3.15 1.96-.728 4.102-1.092 6.426-1.092s4.466.364 6.426 1.092c1.96.728 3.654 1.778 5.082 3.15 1.428 1.344 2.534 2.982 3.318 4.914.812 1.932 1.218 4.088 1.218 6.468s-.406 4.536-1.218 6.468c-.784 1.932-1.89 3.584-3.318 4.956-1.428 1.344-3.122 2.38-5.082 3.108-1.96.728-4.102 1.092-6.426 1.092s-4.466-.364-6.426-1.092c-1.96-.728-3.654-1.764-5.082-3.108-1.428-1.372-2.548-3.024-3.36-4.956-.784-1.932-1.176-4.088-1.176-6.468zm6.804 0c0 1.4.21 2.688.63 3.864a9.359 9.359 0 001.89 3.024 8.73 8.73 0 002.898 1.974c1.148.476 2.422.714 3.822.714s2.66-.238 3.78-.714c1.148-.476 2.128-1.134 2.94-1.974a8.803 8.803 0 001.848-3.024c.448-1.176.672-2.464.672-3.864 0-1.372-.224-2.646-.672-3.822-.42-1.176-1.036-2.184-1.848-3.024a8.347 8.347 0 00-2.94-2.016c-1.12-.476-2.38-.714-3.78-.714s-2.674.238-3.822.714a8.44 8.44 0 00-2.898 2.016c-.812.84-1.442 1.848-1.89 3.024-.42 1.176-.63 2.45-.63 3.822zm29.737-14.868h9.828c2.38 0 4.634.266 6.762.798 2.156.532 4.032 1.4 5.628 2.604 1.596 1.176 2.856 2.716 3.78 4.62.952 1.904 1.428 4.214 1.428 6.93 0 2.408-.462 4.536-1.386 6.384a13.726 13.726 0 01-3.654 4.62c-1.54 1.232-3.318 2.17-5.334 2.814-2.016.644-4.13.966-6.342.966h-10.71V12.264zm6.552 23.688h3.402c1.512 0 2.912-.154 4.2-.462 1.316-.308 2.45-.812 3.402-1.512.952-.728 1.694-1.666 2.226-2.814.56-1.176.84-2.604.84-4.284 0-1.456-.28-2.716-.84-3.78a7.353 7.353 0 00-2.184-2.688c-.924-.7-2.016-1.218-3.276-1.554a13.717 13.717 0 00-3.906-.546h-3.864v17.64zm52.445-16.422c-.532-.672-1.26-1.162-2.184-1.47-.896-.336-1.75-.504-2.562-.504-.476 0-.966.056-1.47.168-.504.112-.98.294-1.428.546a2.925 2.925 0 00-1.092.924c-.28.392-.42.868-.42 1.428 0 .896.336 1.582 1.008 2.058.672.476 1.512.882 2.52 1.218 1.036.336 2.142.672 3.318 1.008 1.176.336 2.268.812 3.276 1.428a7.735 7.735 0 012.562 2.478c.672 1.036 1.008 2.422 1.008 4.158 0 1.652-.308 3.094-.924 4.326a8.682 8.682 0 01-2.52 3.066c-1.036.812-2.254 1.414-3.654 1.806a15.829 15.829 0 01-4.368.588c-1.932 0-3.724-.294-5.376-.882-1.652-.588-3.192-1.54-4.62-2.856l4.662-5.124a7.045 7.045 0 002.52 2.1 7.569 7.569 0 004.788.546c.56-.14 1.05-.336 1.47-.588a2.92 2.92 0 001.05-.966c.28-.392.42-.854.42-1.386 0-.896-.35-1.596-1.05-2.1-.672-.532-1.526-.98-2.562-1.344a80.044 80.044 0 00-3.36-1.092 15.089 15.089 0 01-3.36-1.47 8.313 8.313 0 01-2.604-2.436c-.672-1.008-1.008-2.338-1.008-3.99 0-1.596.308-2.996.924-4.2a9.458 9.458 0 012.52-3.024c1.064-.812 2.282-1.414 3.654-1.806a14.41 14.41 0 014.242-.63c1.68 0 3.304.238 4.872.714a11.237 11.237 0 014.242 2.394l-4.494 4.914zm9.669-7.266h20.202v6.048h-13.65v5.544h12.894v6.048h-12.894v6.048h14.406V42h-20.958V12.264zm45.649 7.728a6.386 6.386 0 00-2.394-1.806c-.924-.42-2.002-.63-3.234-.63-1.232 0-2.38.238-3.444.714a8.342 8.342 0 00-2.73 2.016c-.756.84-1.358 1.848-1.806 3.024-.42 1.176-.63 2.45-.63 3.822 0 1.4.21 2.688.63 3.864a10.21 10.21 0 001.806 3.024 8.293 8.293 0 002.646 1.974 7.852 7.852 0 003.318.714c1.344 0 2.534-.28 3.57-.84a7.105 7.105 0 002.562-2.352l5.46 4.074c-1.26 1.764-2.856 3.066-4.788 3.906-1.932.84-3.92 1.26-5.964 1.26-2.324 0-4.466-.364-6.426-1.092-1.96-.728-3.654-1.764-5.082-3.108-1.428-1.372-2.548-3.024-3.36-4.956-.784-1.932-1.176-4.088-1.176-6.468s.392-4.536 1.176-6.468c.812-1.932 1.932-3.57 3.36-4.914 1.428-1.372 3.122-2.422 5.082-3.15 1.96-.728 4.102-1.092 6.426-1.092.84 0 1.708.084 2.604.252.924.14 1.82.378 2.688.714.896.336 1.75.784 2.562 1.344.812.56 1.54 1.246 2.184 2.058l-5.04 4.116zm34.38 10.542c0 1.764-.266 3.388-.798 4.872a10.579 10.579 0 01-2.394 3.864c-1.036 1.092-2.338 1.946-3.906 2.562-1.568.616-3.374.924-5.418.924-2.072 0-3.892-.308-5.46-.924-1.568-.616-2.884-1.47-3.948-2.562-1.036-1.092-1.82-2.38-2.352-3.864-.532-1.484-.798-3.108-.798-4.872v-18.27h6.552v18.018c0 .924.14 1.778.42 2.562a6.67 6.67 0 001.26 2.058 6.109 6.109 0 001.89 1.344 6.394 6.394 0 002.436.462c.868 0 1.666-.154 2.394-.462a6.109 6.109 0 001.89-1.344 6.078 6.078 0 001.218-2.058 6.946 6.946 0 00.462-2.562V12.264h6.552v18.27zm6.057-18.27h11.508c1.512 0 2.94.154 4.284.462 1.372.28 2.562.77 3.57 1.47 1.036.672 1.848 1.596 2.436 2.772.616 1.148.924 2.59.924 4.326 0 2.1-.546 3.892-1.638 5.376-1.092 1.456-2.688 2.38-4.788 2.772L405.577 42h-7.854l-6.216-11.886h-3.234V42h-6.552V12.264zm6.552 12.306h3.864c.588 0 1.204-.014 1.848-.042a6.866 6.866 0 001.806-.378c.532-.224.966-.56 1.302-1.008.364-.448.546-1.078.546-1.89 0-.756-.154-1.358-.462-1.806a2.914 2.914 0 00-1.176-1.008 4.884 4.884 0 00-1.638-.504 13.36 13.36 0 00-1.806-.126h-4.284v6.762zm20.599-12.306h6.552V42h-6.552V12.264zm18.265 5.796h-8.484v-5.796h23.52v5.796h-8.484V42h-6.552V18.06zm25.672 11.256l-11.172-17.052h8.148l6.3 11.13 6.678-11.13h7.77l-11.172 17.052V42h-6.552V29.316z"/></defs></svg>