<svg viewBox="0 0 128 128" xmlns="http://www.w3.org/2000/svg"><g fill="none" stroke="#1d9cd3" stroke-width="3"><g stroke-miterlimit="10"><path d="m22.54 73.7a50.4 50.4 0 1 1 46.46 31.15 45.51 45.51 0 0 1 -6.8-.44"/><path d="m62.23 58.35 3.77 3.73 4.28-.54 2.72 2.74.55 5.15 3.4.77 2 1.87.77 3.51 5.38 2.74 2.07 2 1.21 3.83 11.62-.24-31.18-30.71"/><path d="m62.23 58.35a19 19 0 1 1 10.09-10.64l28 27.53.44 3.62"/></g><path d="m62.23 58.35 3.77 3.73 4.28-.54 2.72 2.74.55 5.15 3.4.77 2 1.87.77 3.51 5.38 2.74 2.07 2 1.21 3.83 11.62-.24-31.18-30.71" stroke-linecap="round" stroke-linejoin="round"/><path d="m62.23 58.35a19 19 0 1 1 10.09-10.64l28 27.53.44 3.62" stroke-linecap="round" stroke-linejoin="round"/><circle cx="49.73" cy="35.97" r="5.81" stroke-linecap="round" stroke-linejoin="round"/><circle cx="35.58" cy="96.84" r="27.09" stroke-miterlimit="10"/><path d="m24.18 92.12h22.92v20.07h-22.92z" stroke-linecap="round" stroke-linejoin="round"/><path d="m44.25 92.12v-5.7a8.56 8.56 0 1 0 -17.11 0v5.7" stroke-linecap="round" stroke-linejoin="round"/></g></svg>